<mxfile host="app.diagrams.net" modified="2024-01-03T01:03:38.012Z" agent="Mozilla/5.0 (Windows NT 10.0; Win64; x64) AppleWebKit/537.36 (KHTML, like Gecko) Chrome/120.0.0.0 Safari/537.36" version="22.1.16" etag="sWV5j67NsfVaMeqF3dNI" type="github">
  <diagram name="Page-1" id="H23wEk8UcjHjzjOc1eaF">
    <mxGraphModel>
      <root>
        <mxCell id="0" />
        <mxCell id="1" parent="0" />
      </root>
    </mxGraphModel>
  </diagram>
</mxfile>
